<?xml version="1.0" encoding="utf-8"?>
<!-- Generator: Adobe Illustrator 23.0.3, SVG Export Plug-In . SVG Version: 6.00 Build 0)  -->
<svg version="1.1" id="Capa_1" xmlns="http://www.w3.org/2000/svg" xmlns:xlink="http://www.w3.org/1999/xlink" x="0px" y="0px"
	 viewBox="0 0 16 16" style="enable-background:new 0 0 16 16;" xml:space="preserve">
<g>
	<path d="M5.1,0.2c0.3,0,0.5,0.2,0.5,0.5v1.5h1V0.7c0-0.3,0.2-0.5,0.5-0.5c0.3,0,0.5,0.2,0.5,0.5v1.5h1V0.7c0-0.3,0.2-0.5,0.5-0.5
		s0.5,0.2,0.5,0.5v1.5h1V0.7c0-0.3,0.2-0.5,0.5-0.5s0.5,0.2,0.5,0.5v1.5c1.3,0,2.4,1.1,2.4,2.4h1.5c0.3,0,0.5,0.2,0.5,0.5
		s-0.2,0.5-0.5,0.5h-1.5v1h1.5c0.3,0,0.5,0.2,0.5,0.5c0,0.3-0.2,0.5-0.5,0.5h-1.5v1h1.5c0.3,0,0.5,0.2,0.5,0.5s-0.2,0.5-0.5,0.5
		h-1.5v1h1.5c0.3,0,0.5,0.2,0.5,0.5s-0.2,0.5-0.5,0.5h-1.5c0,1.3-1.1,2.4-2.4,2.4v1.5c0,0.3-0.2,0.5-0.5,0.5s-0.5-0.2-0.5-0.5v-1.5
		h-1v1.5c0,0.3-0.2,0.5-0.5,0.5s-0.5-0.2-0.5-0.5v-1.5h-1v1.5c0,0.3-0.2,0.5-0.5,0.5c-0.3,0-0.5-0.2-0.5-0.5v-1.5h-1v1.5
		c0,0.3-0.2,0.5-0.5,0.5s-0.5-0.2-0.5-0.5v-1.5c-1.3,0-2.4-1.1-2.4-2.4H0.7c-0.3,0-0.5-0.2-0.5-0.5s0.2-0.5,0.5-0.5h1.5v-1H0.7
		C0.5,9.5,0.2,9.2,0.2,9s0.2-0.5,0.5-0.5h1.5v-1H0.7C0.5,7.5,0.2,7.3,0.2,7c0-0.3,0.2-0.5,0.5-0.5h1.5v-1H0.7
		c-0.3,0-0.5-0.2-0.5-0.5s0.2-0.5,0.5-0.5h1.5c0-1.3,1.1-2.4,2.4-2.4V0.7C4.6,0.5,4.8,0.2,5.1,0.2z M4.6,3.2c-0.8,0-1.5,0.7-1.5,1.5
		v6.8c0,0.8,0.7,1.5,1.5,1.5h6.8c0.8,0,1.5-0.7,1.5-1.5V4.6c0-0.8-0.7-1.5-1.5-1.5H4.6z M5.1,6.5c0-0.8,0.7-1.5,1.5-1.5h2.9
		c0.8,0,1.5,0.7,1.5,1.5v2.9c0,0.8-0.7,1.5-1.5,1.5H6.5c-0.8,0-1.5-0.7-1.5-1.5V6.5z M6.5,6.1c-0.3,0-0.5,0.2-0.5,0.5v2.9
		c0,0.3,0.2,0.5,0.5,0.5h2.9c0.3,0,0.5-0.2,0.5-0.5V6.5c0-0.3-0.2-0.5-0.5-0.5H6.5z"/>
	<path d="M10.9,16c-0.4,0-0.7-0.3-0.7-0.7v-1.2H9.7v1.2C9.7,15.7,9.4,16,9,16s-0.7-0.3-0.7-0.7v-1.2H7.8v1.2C7.8,15.7,7.4,16,7,16
		c-0.4,0-0.7-0.3-0.7-0.7v-1.2H5.8v1.2c0,0.4-0.3,0.7-0.7,0.7c-0.4,0-0.7-0.3-0.7-0.7v-1.2c-1.3-0.1-2.3-1.1-2.4-2.4H0.7
		c-0.4,0-0.7-0.3-0.7-0.7s0.3-0.7,0.7-0.7h1.2V9.7H0.7C0.3,9.7,0,9.4,0,9c0-0.4,0.3-0.7,0.7-0.7h1.2V7.8H0.7C0.3,7.8,0,7.4,0,7
		s0.3-0.7,0.7-0.7h1.2V5.8H0.7C0.3,5.8,0,5.5,0,5.1c0-0.4,0.3-0.7,0.7-0.7h1.2c0.1-1.3,1.1-2.3,2.4-2.4V0.7C4.4,0.3,4.7,0,5.1,0
		c0.4,0,0.7,0.3,0.7,0.7v1.2h0.5V0.7C6.3,0.3,6.6,0,7,0c0.4,0,0.7,0.3,0.7,0.7v1.2h0.5V0.7C8.2,0.3,8.6,0,9,0s0.7,0.3,0.7,0.7v1.2
		h0.5V0.7c0-0.4,0.3-0.7,0.7-0.7s0.7,0.3,0.7,0.7v1.2c1.3,0.1,2.3,1.1,2.4,2.4h1.2c0.4,0,0.7,0.3,0.7,0.7c0,0.4-0.3,0.7-0.7,0.7
		h-1.2v0.5h1.2C15.7,6.3,16,6.6,16,7s-0.3,0.7-0.7,0.7h-1.2v0.5h1.2C15.7,8.2,16,8.6,16,9c0,0.4-0.3,0.7-0.7,0.7h-1.2v0.5h1.2
		c0.4,0,0.7,0.3,0.7,0.7s-0.3,0.7-0.7,0.7h-1.2c-0.1,1.3-1.1,2.3-2.4,2.4v1.2C11.6,15.7,11.3,16,10.9,16z M9.2,13.6h1.5v1.7
		c0,0.1,0.1,0.2,0.2,0.2s0.2-0.1,0.2-0.2v-1.7h0.2c1.2,0,2.2-1,2.2-2.2v-0.2h1.7c0.1,0,0.2-0.1,0.2-0.2s-0.1-0.2-0.2-0.2h-1.7V9.2
		h1.7c0.1,0,0.2-0.1,0.2-0.2c0-0.1-0.1-0.2-0.2-0.2h-1.7V7.3h1.7c0.1,0,0.2-0.1,0.2-0.2s-0.1-0.2-0.2-0.2h-1.7V5.3h1.7
		c0.1,0,0.2-0.1,0.2-0.2c0-0.1-0.1-0.2-0.2-0.2h-1.7V4.6c0-1.2-1-2.2-2.2-2.2h-0.2V0.7c0-0.1-0.1-0.2-0.2-0.2s-0.2,0.1-0.2,0.2v1.7
		H9.2V0.7c0-0.1-0.1-0.2-0.2-0.2S8.7,0.6,8.7,0.7v1.7H7.3V0.7c0-0.1-0.1-0.2-0.2-0.2S6.8,0.6,6.8,0.7v1.7H5.3V0.7
		c0-0.1-0.1-0.2-0.2-0.2C5,0.5,4.9,0.6,4.9,0.7v1.7H4.6c-1.2,0-2.2,1-2.2,2.2v0.2H0.7C0.6,4.9,0.5,5,0.5,5.1c0,0.1,0.1,0.2,0.2,0.2
		h1.7v1.5H0.7C0.6,6.8,0.5,6.9,0.5,7s0.1,0.2,0.2,0.2h1.7v1.5H0.7C0.6,8.7,0.5,8.8,0.5,9c0,0.1,0.1,0.2,0.2,0.2h1.7v1.5H0.7
		c-0.1,0-0.2,0.1-0.2,0.2s0.1,0.2,0.2,0.2h1.7v0.2c0,1.2,1,2.2,2.2,2.2h0.2v1.7c0,0.1,0.1,0.2,0.2,0.2c0.1,0,0.2-0.1,0.2-0.2v-1.7
		h1.5v1.7c0,0.1,0.1,0.2,0.2,0.2s0.2-0.1,0.2-0.2v-1.7h1.5v1.7c0,0.1,0.1,0.2,0.2,0.2s0.2-0.1,0.2-0.2V13.6z M11.4,13.1H4.6
		c-0.9,0-1.7-0.8-1.7-1.7V4.6c0-0.9,0.8-1.7,1.7-1.7h6.8c0.9,0,1.7,0.8,1.7,1.7v6.8C13.1,12.3,12.3,13.1,11.4,13.1z M4.6,3.4
		c-0.7,0-1.2,0.5-1.2,1.2v6.8c0,0.7,0.5,1.2,1.2,1.2h6.8c0.7,0,1.2-0.5,1.2-1.2V4.6c0-0.7-0.5-1.2-1.2-1.2H4.6z M9.5,11.2H6.5
		c-0.9,0-1.7-0.8-1.7-1.7V6.5c0-0.9,0.8-1.7,1.7-1.7h2.9c0.9,0,1.7,0.8,1.7,1.7v2.9C11.2,10.4,10.4,11.2,9.5,11.2z M6.5,5.3
		c-0.7,0-1.2,0.5-1.2,1.2v2.9c0,0.7,0.5,1.2,1.2,1.2h2.9c0.7,0,1.2-0.5,1.2-1.2V6.5c0-0.7-0.5-1.2-1.2-1.2H6.5z M9.5,10.2H6.5
		c-0.4,0-0.7-0.3-0.7-0.7V6.5c0-0.4,0.3-0.7,0.7-0.7h2.9c0.4,0,0.7,0.3,0.7,0.7v2.9C10.2,9.9,9.9,10.2,9.5,10.2z M6.5,6.3
		c-0.1,0-0.2,0.1-0.2,0.2v2.9c0,0.1,0.1,0.2,0.2,0.2h2.9c0.1,0,0.2-0.1,0.2-0.2V6.5c0-0.1-0.1-0.2-0.2-0.2H6.5z"/>
</g>
</svg>
